<svg width="1440" height="59" viewBox="0 0 1440 59" fill="none" xmlns="http://www.w3.org/2000/svg">
<rect width="1440" height="59" fill="black"/>
<path d="M695.522 23.94V34.5H694.306V27.86L694.45 25.076H694.434L690.962 34.5H689.874L686.402 25.076H686.386L686.53 27.86V34.5H685.314V23.94H687.282L689.602 30.356L690.402 32.996H690.434L691.25 30.372L693.554 23.94H695.522ZM701.933 26.34C702.69 26.34 703.357 26.5053 703.933 26.836C704.519 27.1667 704.978 27.6467 705.309 28.276C705.639 28.8947 705.805 29.636 705.805 30.5C705.805 31.364 705.639 32.1107 705.309 32.74C704.978 33.3587 704.519 33.8333 703.933 34.164C703.357 34.4947 702.69 34.66 701.933 34.66C701.186 34.66 700.519 34.4947 699.933 34.164C699.346 33.8333 698.887 33.3587 698.557 32.74C698.226 32.1107 698.061 31.364 698.061 30.5C698.061 29.636 698.226 28.8947 698.557 28.276C698.887 27.6467 699.346 27.1667 699.933 26.836C700.519 26.5053 701.186 26.34 701.933 26.34ZM701.933 27.444C701.389 27.444 700.925 27.5667 700.541 27.812C700.157 28.0573 699.858 28.4093 699.645 28.868C699.442 29.316 699.341 29.86 699.341 30.5C699.341 31.1293 699.442 31.6733 699.645 32.132C699.858 32.5907 700.157 32.9427 700.541 33.188C700.925 33.4333 701.389 33.556 701.933 33.556C702.477 33.556 702.941 33.4333 703.325 33.188C703.709 32.9427 704.002 32.5907 704.205 32.132C704.418 31.6733 704.525 31.1293 704.525 30.5C704.525 29.86 704.418 29.316 704.205 28.868C704.002 28.4093 703.709 28.0573 703.325 27.812C702.941 27.5667 702.477 27.444 701.933 27.444ZM711.335 34.66C710.673 34.66 710.065 34.4947 709.511 34.164C708.956 33.8333 708.513 33.3587 708.183 32.74C707.852 32.1107 707.687 31.364 707.687 30.5C707.687 29.6147 707.863 28.8627 708.215 28.244C708.567 27.6253 709.031 27.156 709.607 26.836C710.183 26.5053 710.801 26.34 711.463 26.34C712.124 26.34 712.695 26.5107 713.175 26.852C713.665 27.1933 713.991 27.6467 714.151 28.212L713.991 28.324V22.82H715.271V34.5H714.151L714.039 32.564L714.215 32.468C714.14 32.9373 713.959 33.3373 713.671 33.668C713.393 33.988 713.047 34.2333 712.631 34.404C712.225 34.5747 711.793 34.66 711.335 34.66ZM711.463 33.54C711.975 33.54 712.417 33.412 712.791 33.156C713.175 32.9 713.468 32.5373 713.671 32.068C713.884 31.588 713.991 31.028 713.991 30.388C713.991 29.78 713.884 29.2573 713.671 28.82C713.468 28.3827 713.18 28.0467 712.807 27.812C712.444 27.5773 712.017 27.46 711.527 27.46C710.716 27.46 710.087 27.7373 709.639 28.292C709.191 28.8467 708.967 29.5827 708.967 30.5C708.967 31.4173 709.185 32.1533 709.623 32.708C710.06 33.2627 710.673 33.54 711.463 33.54ZM721.59 34.66C720.832 34.66 720.155 34.4947 719.558 34.164C718.971 33.8333 718.512 33.3587 718.182 32.74C717.851 32.1107 717.686 31.364 717.686 30.5C717.686 29.636 717.851 28.8947 718.182 28.276C718.512 27.6467 718.966 27.1667 719.542 26.836C720.118 26.5053 720.774 26.34 721.51 26.34C722.256 26.34 722.891 26.5 723.414 26.82C723.947 27.14 724.352 27.5773 724.63 28.132C724.907 28.676 725.046 29.2893 725.046 29.972C725.046 30.1533 725.04 30.3187 725.03 30.468C725.019 30.6173 725.003 30.7507 724.982 30.868H718.518V29.732H724.422L723.766 29.86C723.766 29.092 723.552 28.5 723.126 28.084C722.71 27.668 722.16 27.46 721.478 27.46C720.955 27.46 720.502 27.5827 720.118 27.828C719.744 28.0627 719.451 28.4093 719.238 28.868C719.035 29.316 718.934 29.86 718.934 30.5C718.934 31.1293 719.04 31.6733 719.254 32.132C719.467 32.5907 719.766 32.9427 720.15 33.188C720.544 33.4227 721.014 33.54 721.558 33.54C722.144 33.54 722.619 33.428 722.982 33.204C723.355 32.98 723.654 32.676 723.878 32.292L724.886 32.884C724.683 33.2467 724.422 33.5613 724.102 33.828C723.792 34.0947 723.424 34.3027 722.998 34.452C722.582 34.5907 722.112 34.66 721.59 34.66ZM736.277 34.66C735.52 34.66 734.843 34.4947 734.245 34.164C733.659 33.8333 733.2 33.3587 732.869 32.74C732.539 32.1107 732.373 31.364 732.373 30.5C732.373 29.636 732.539 28.8947 732.869 28.276C733.2 27.6467 733.653 27.1667 734.229 26.836C734.805 26.5053 735.461 26.34 736.197 26.34C736.944 26.34 737.579 26.5 738.101 26.82C738.635 27.14 739.04 27.5773 739.317 28.132C739.595 28.676 739.733 29.2893 739.733 29.972C739.733 30.1533 739.728 30.3187 739.717 30.468C739.707 30.6173 739.691 30.7507 739.669 30.868H733.205V29.732H739.109L738.453 29.86C738.453 29.092 738.24 28.5 737.813 28.084C737.397 27.668 736.848 27.46 736.165 27.46C735.643 27.46 735.189 27.5827 734.805 27.828C734.432 28.0627 734.139 28.4093 733.925 28.868C733.723 29.316 733.621 29.86 733.621 30.5C733.621 31.1293 733.728 31.6733 733.941 32.132C734.155 32.5907 734.453 32.9427 734.837 33.188C735.232 33.4227 735.701 33.54 736.245 33.54C736.832 33.54 737.307 33.428 737.669 33.204C738.043 32.98 738.341 32.676 738.565 32.292L739.573 32.884C739.371 33.2467 739.109 33.5613 738.789 33.828C738.48 34.0947 738.112 34.3027 737.685 34.452C737.269 34.5907 736.8 34.66 736.277 34.66ZM736.533 22.5H737.925L736.357 25.172H735.317L736.533 22.5ZM745.288 34.66C744.626 34.66 744.018 34.4947 743.464 34.164C742.909 33.8333 742.466 33.3587 742.136 32.74C741.805 32.1107 741.64 31.364 741.64 30.5C741.64 29.6147 741.816 28.8627 742.168 28.244C742.52 27.6253 742.984 27.156 743.56 26.836C744.136 26.5053 744.754 26.34 745.416 26.34C746.077 26.34 746.648 26.5107 747.128 26.852C747.618 27.1933 747.944 27.6467 748.104 28.212L747.944 28.324V22.82H749.224V34.5H748.104L747.992 32.564L748.168 32.468C748.093 32.9373 747.912 33.3373 747.624 33.668C747.346 33.988 747 34.2333 746.584 34.404C746.178 34.5747 745.746 34.66 745.288 34.66ZM745.416 33.54C745.928 33.54 746.37 33.412 746.744 33.156C747.128 32.9 747.421 32.5373 747.624 32.068C747.837 31.588 747.944 31.028 747.944 30.388C747.944 29.78 747.837 29.2573 747.624 28.82C747.421 28.3827 747.133 28.0467 746.76 27.812C746.397 27.5773 745.97 27.46 745.48 27.46C744.669 27.46 744.04 27.7373 743.592 28.292C743.144 28.8467 742.92 29.5827 742.92 30.5C742.92 31.4173 743.138 32.1533 743.576 32.708C744.013 33.2627 744.626 33.54 745.416 33.54ZM752.839 24.964C752.551 24.964 752.316 24.8787 752.135 24.708C751.964 24.5267 751.879 24.292 751.879 24.004C751.879 23.716 751.964 23.4867 752.135 23.316C752.316 23.1347 752.551 23.044 752.839 23.044C753.127 23.044 753.356 23.1347 753.527 23.316C753.708 23.4867 753.799 23.716 753.799 24.004C753.799 24.292 753.708 24.5267 753.527 24.708C753.356 24.8787 753.127 24.964 752.839 24.964ZM753.479 26.5V34.5H752.199V26.5H753.479ZM758.337 24.228V32.292C758.337 32.6867 758.449 32.98 758.673 33.172C758.897 33.364 759.185 33.46 759.537 33.46C759.846 33.46 760.113 33.4067 760.337 33.3C760.561 33.1933 760.764 33.0493 760.945 32.868L761.393 33.94C761.148 34.164 760.854 34.34 760.513 34.468C760.182 34.596 759.798 34.66 759.361 34.66C758.956 34.66 758.577 34.5907 758.225 34.452C757.873 34.3027 757.59 34.0733 757.377 33.764C757.174 33.444 757.068 33.028 757.057 32.516V24.58L758.337 24.228ZM761.249 26.5V27.604H755.457V26.5H761.249ZM763.792 24.964C763.504 24.964 763.269 24.8787 763.088 24.708C762.917 24.5267 762.832 24.292 762.832 24.004C762.832 23.716 762.917 23.4867 763.088 23.316C763.269 23.1347 763.504 23.044 763.792 23.044C764.08 23.044 764.309 23.1347 764.48 23.316C764.661 23.4867 764.752 23.716 764.752 24.004C764.752 24.292 764.661 24.5267 764.48 24.708C764.309 24.8787 764.08 24.964 763.792 24.964ZM764.432 26.5V34.5H763.152V26.5H764.432ZM770.714 26.34C771.471 26.34 772.138 26.5053 772.714 26.836C773.301 27.1667 773.759 27.6467 774.09 28.276C774.421 28.8947 774.586 29.636 774.586 30.5C774.586 31.364 774.421 32.1107 774.09 32.74C773.759 33.3587 773.301 33.8333 772.714 34.164C772.138 34.4947 771.471 34.66 770.714 34.66C769.967 34.66 769.301 34.4947 768.714 34.164C768.127 33.8333 767.669 33.3587 767.338 32.74C767.007 32.1107 766.842 31.364 766.842 30.5C766.842 29.636 767.007 28.8947 767.338 28.276C767.669 27.6467 768.127 27.1667 768.714 26.836C769.301 26.5053 769.967 26.34 770.714 26.34ZM770.714 27.444C770.17 27.444 769.706 27.5667 769.322 27.812C768.938 28.0573 768.639 28.4093 768.426 28.868C768.223 29.316 768.122 29.86 768.122 30.5C768.122 31.1293 768.223 31.6733 768.426 32.132C768.639 32.5907 768.938 32.9427 769.322 33.188C769.706 33.4333 770.17 33.556 770.714 33.556C771.258 33.556 771.722 33.4333 772.106 33.188C772.49 32.9427 772.783 32.5907 772.986 32.132C773.199 31.6733 773.306 31.1293 773.306 30.5C773.306 29.86 773.199 29.316 772.986 28.868C772.783 28.4093 772.49 28.0573 772.106 27.812C771.722 27.5667 771.258 27.444 770.714 27.444ZM776.996 34.5V26.5H778.116L778.228 28.292L778.02 28.116C778.19 27.6893 778.42 27.348 778.708 27.092C778.996 26.8253 779.326 26.6333 779.7 26.516C780.084 26.3987 780.478 26.34 780.884 26.34C781.46 26.34 781.982 26.452 782.452 26.676C782.921 26.8893 783.294 27.22 783.572 27.668C783.86 28.116 784.004 28.6867 784.004 29.38V34.5H782.724V29.828C782.724 28.9427 782.532 28.3293 782.148 27.988C781.774 27.636 781.31 27.46 780.756 27.46C780.372 27.46 779.988 27.5507 779.604 27.732C779.22 27.9133 778.9 28.2067 778.644 28.612C778.398 29.0173 778.276 29.5613 778.276 30.244V34.5H776.996Z" fill="white"/>
<path d="M670.023 23.1858L670.394 23.5568C670.682 23.845 670.682 24.3111 670.394 24.5963L669.502 25.4917L668.088 24.0781L668.98 23.1858C669.269 22.8975 669.735 22.8975 670.02 23.1858H670.023ZM662.933 29.2358L667.048 25.1176L668.462 26.5312L664.344 30.6463C664.255 30.7353 664.145 30.7996 664.025 30.8334L662.231 31.3455L662.743 29.5516C662.777 29.432 662.841 29.3216 662.93 29.2327L662.933 29.2358ZM667.941 22.1462L661.891 28.1932C661.624 28.46 661.431 28.7881 661.33 29.1469L660.453 32.2133C660.379 32.4708 660.45 32.7468 660.64 32.9369C660.83 33.127 661.106 33.1976 661.363 33.124L664.43 32.247C664.792 32.1427 665.12 31.9495 665.383 31.6858L671.433 25.6389C672.295 24.7772 672.295 23.3789 671.433 22.5173L671.062 22.1462C670.201 21.2846 668.802 21.2846 667.941 22.1462ZM659.198 23.3421C657.708 23.3421 656.5 24.5503 656.5 26.0406V34.3812C656.5 35.8715 657.708 37.0796 659.198 37.0796H667.539C669.029 37.0796 670.238 35.8715 670.238 34.3812V30.9468C670.238 30.539 669.909 30.2109 669.502 30.2109C669.094 30.2109 668.766 30.539 668.766 30.9468V34.3812C668.766 35.0589 668.217 35.6078 667.539 35.6078H659.198C658.521 35.6078 657.972 35.0589 657.972 34.3812V26.0406C657.972 25.3629 658.521 24.814 659.198 24.814H662.633C663.041 24.814 663.369 24.4859 663.369 24.0781C663.369 23.6702 663.041 23.3421 662.633 23.3421H659.198Z" fill="white"/>
</svg>
